<?xml version="1.0" standalone="no"?>
<!DOCTYPE svg PUBLIC "-//W3C//DTD SVG 20010904//EN"
 "http://www.w3.org/TR/2001/REC-SVG-20010904/DTD/svg10.dtd">
<svg version="1.0" xmlns="http://www.w3.org/2000/svg"
 width="200.000000pt" height="200.000000pt" viewBox="0 0 200.000000 200.000000"
 preserveAspectRatio="xMidYMid meet">

<g transform="translate(0.000000,200.000000) scale(0.100000,-0.100000)"
fill="#000000" stroke="none">
<path d="M0 1000 l0 -1000 1000 0 1000 0 0 1000 0 1000 -1000 0 -1000 0 0
-1000z m1039 674 l32 -82 -55 -113 c-31 -62 -54 -115 -52 -117 3 -2 31 31 63
74 57 77 58 77 64 48 14 -63 9 -81 -31 -130 -47 -57 -51 -73 -12 -46 51 36 52
36 52 -3 0 -29 -5 -38 -26 -48 l-27 -12 24 -6 c17 -4 23 -12 22 -26 -2 -22 52
-52 137 -76 29 -8 46 -19 48 -31 3 -16 0 -18 -22 -12 -15 4 -26 2 -26 -4 0 -5
6 -10 14 -10 22 0 39 -27 29 -45 -8 -14 -12 -14 -36 5 -32 26 -34 18 -7 -20
20 -28 20 -29 2 -39 -16 -9 -22 -1 -52 65 -18 41 -33 74 -34 74 -1 0 -28 5
-61 10 -51 8 -63 7 -92 -10 -18 -11 -33 -15 -33 -11 0 5 7 11 15 15 25 9 18
45 -11 52 -14 4 -47 22 -74 40 l-49 34 -45 -19 c-24 -11 -48 -27 -54 -37 -16
-29 -23 2 -7 39 22 54 76 103 107 98 7 -1 16 21 103 267 32 89 59 161 61 160
1 -2 16 -40 33 -84z m-649 -854 l0 -60 35 0 c19 0 35 -5 35 -11 0 -6 -19 -9
-47 -7 -53 3 -49 -8 -44 106 2 58 21 34 21 -28z m348 -2 c12 -35 22 -66 22
-70 0 -16 -19 -7 -25 12 -8 24 -65 29 -65 6 0 -16 -18 -31 -27 -23 -3 3 5 35
18 71 31 86 48 86 77 4z m300 53 c8 -4 13 -19 11 -32 -1 -13 2 -32 6 -43 14
-32 -7 -51 -64 -54 l-51 -3 0 70 0 71 43 0 c23 0 48 -4 55 -9z m312 -1 c0 -5
-18 -10 -40 -10 -33 0 -40 -3 -40 -20 0 -16 7 -20 35 -20 19 0 35 -4 35 -10 0
-5 -16 -10 -35 -10 -28 0 -35 -4 -35 -20 0 -17 7 -20 40 -20 22 0 40 -4 40
-10 0 -5 -25 -10 -55 -10 l-55 0 0 70 0 70 55 0 c30 0 55 -4 55 -10z m215 -17
l18 -26 14 26 c7 15 21 27 29 27 13 0 12 -5 -5 -33 l-20 -33 20 -33 c26 -43
14 -55 -17 -16 -23 29 -24 29 -38 10 -9 -11 -16 -23 -16 -27 0 -5 -7 -8 -16
-8 -13 0 -12 6 6 36 20 32 21 38 9 62 -7 15 -15 30 -17 35 -10 20 18 4 33 -20z
m-917 -301 c4 -27 22 -29 22 -3 0 19 17 38 26 29 7 -8 -22 -82 -34 -86 -11 -3
-20 12 -37 67 -5 17 -4 22 6 19 8 -3 15 -14 17 -26z m112 -17 c0 -25 -4 -45
-10 -45 -5 0 -10 20 -10 45 0 25 5 45 10 45 6 0 10 -20 10 -45z m118 6 c15
-47 15 -51 2 -51 -5 0 -10 7 -10 15 0 8 -6 15 -14 15 -8 0 -16 -7 -20 -15 -9
-25 -28 -18 -20 8 25 80 44 89 62 28z m132 24 c10 -12 10 -15 -3 -15 -8 0 -17
5 -19 12 -7 19 -28 -1 -28 -27 0 -28 17 -42 33 -26 9 9 8 14 -3 21 -12 8 -10
10 8 10 15 0 22 -6 22 -19 0 -37 -65 -43 -81 -7 -22 49 37 92 71 51z m108 8
c-16 -2 -28 -11 -28 -19 0 -8 11 -15 28 -15 l27 -2 -27 -4 c-16 -2 -28 -10
-28 -18 0 -8 12 -16 28 -18 22 -3 20 -4 -10 -6 l-38 -1 0 45 0 45 38 -1 c30
-2 32 -3 10 -6z m106 -15 l16 -22 0 22 c0 12 5 22 10 22 6 0 10 -20 10 -45 0
-50 -19 -61 -38 -22 l-11 22 0 -22 c-2 -44 -21 -23 -21 22 0 50 11 57 34 23z
m152 11 c5 -9 -1 -10 -20 -5 -33 8 -34 -7 0 -23 36 -16 28 -45 -14 -49 -18 -2
-32 1 -32 8 0 6 10 8 25 4 16 -4 25 -2 25 5 0 6 -11 16 -25 21 -24 9 -32 29
-18 43 11 11 51 8 59 -4z"/>
<path d="M757 1263 c-4 -3 -7 -11 -7 -17 0 -6 5 -5 12 2 6 6 9 14 7 17 -3 3
-9 2 -12 -2z"/>
<path d="M692 833 c-16 -29 -15 -33 8 -33 22 0 23 4 11 35 -8 19 -8 19 -19 -2z"/>
<path d="M970 840 c0 -17 5 -21 28 -18 16 2 27 9 27 18 0 9 -11 16 -27 18 -23
3 -28 -1 -28 -18z"/>
<path d="M970 780 c0 -18 5 -21 33 -18 20 2 32 8 32 18 0 10 -12 16 -32 18
-28 3 -33 0 -33 -18z"/>
</g>
</svg>
